<?xml version="1.0" standalone="no"?>
<!DOCTYPE svg PUBLIC "-//W3C//DTD SVG 20010904//EN"
 "http://www.w3.org/TR/2001/REC-SVG-20010904/DTD/svg10.dtd">
<svg version="1.0" xmlns="http://www.w3.org/2000/svg"
 width="40.000000pt" height="40.000000pt" viewBox="0 0 40.000000 40.000000"
 preserveAspectRatio="xMidYMid meet">
<metadata>
Created by potrace 1.16, written by Peter Selinger 2001-2019
</metadata>
<g transform="translate(0.000000,40.000000) scale(0.004762,-0.004762)"
fill="#000000" stroke="none">
<path d="M3776 8386 c4 -10 -15 -16 -78 -26 -182 -26 -424 -86 -603 -150 -262
-92 -526 -231 -725 -380 -457 -342 -732 -722 -906 -1250 -15 -47 -32 -90 -38
-96 -6 -6 -51 -16 -100 -23 -48 -6 -108 -21 -133 -33 -182 -85 -379 -433 -453
-800 -62 -300 -48 -615 35 -823 89 -222 245 -369 431 -405 36 -7 118 -11 200
-8 126 3 143 5 184 28 59 34 128 123 134 175 2 22 6 407 8 855 l3 815 -36 50
c-63 87 -63 82 -23 181 183 452 540 815 1049 1064 375 184 757 283 1200 311
184 12 583 6 712 -11 537 -71 957 -216 1318 -455 156 -104 256 -188 382 -319
169 -177 292 -364 388 -588 l37 -87 -46 -74 -46 -74 -1 -444 c0 -244 -4 -516
-8 -604 -7 -143 -11 -168 -38 -235 -53 -135 -125 -229 -298 -387 -163 -150
-285 -243 -285 -218 0 3 20 67 45 143 84 257 146 514 181 742 20 131 30 602
15 700 -113 722 -611 1329 -1306 1592 -266 101 -474 137 -780 137 -317 0 -502
-34 -790 -146 -619 -242 -1085 -758 -1240 -1373 -70 -277 -81 -623 -30 -965
130 -877 513 -1729 1005 -2239 245 -254 536 -424 840 -492 114 -25 331 -23
437 4 171 44 322 120 492 247 307 230 585 578 885 1108 55 96 73 111 316 245
62 34 318 195 474 297 71 47 138 85 148 85 11 0 32 -8 46 -19 57 -40 106 -53
212 -58 203 -9 352 46 480 176 163 168 242 438 227 781 -18 403 -162 784 -377
1001 -80 80 -129 104 -245 120 -49 7 -94 16 -99 20 -5 4 -30 71 -56 149 -115
339 -311 651 -575 915 -212 213 -420 365 -698 508 -117 61 -354 161 -437 185
-19 5 -82 24 -140 40 -112 33 -323 76 -429 87 -58 7 -63 9 -46 21 16 12 -42
14 -403 14 -354 0 -421 -2 -416 -14z m889 -2216 c194 -47 498 -147 595 -195
200 -100 583 -199 840 -217 l35 -3 -3 -110 c-7 -330 -90 -738 -225 -1115 -116
-325 -126 -345 -192 -384 -264 -154 -785 -377 -941 -402 -37 -5 -44 -3 -88 35
-26 22 -59 44 -74 48 -15 5 -164 8 -332 7 -343 -1 -349 -2 -395 -73 -24 -36
-26 -47 -26 -159 0 -126 12 -194 39 -226 38 -42 67 -46 374 -46 301 0 355 6
393 40 18 17 28 34 68 119 10 21 29 29 122 51 144 35 351 106 548 187 87 36
161 63 164 60 3 -3 -4 -19 -16 -35 -12 -17 -21 -33 -21 -37 0 -13 -219 -332
-275 -399 -204 -249 -441 -460 -625 -556 -225 -116 -500 -141 -740 -65 -336
106 -662 383 -935 795 -81 122 -106 166 -218 390 -165 329 -246 541 -335 875
-63 236 -112 493 -112 592 0 157 191 449 395 604 63 48 175 112 183 104 2 -2
-11 -42 -31 -88 -67 -161 -82 -239 -81 -442 1 -191 17 -300 43 -300 8 0 41 49
74 110 32 61 86 151 119 200 55 82 83 118 172 225 68 81 267 267 351 327 89
64 115 69 76 15 -36 -51 -108 -205 -144 -308 -64 -183 -72 -240 -71 -519 0
-263 6 -325 29 -325 7 0 44 48 81 108 336 536 541 787 829 1017 105 84 171
125 202 125 12 0 79 -14 148 -30z"/>
<path d="M3020 2759 c-36 -11 -117 -33 -180 -50 -63 -18 -153 -42 -200 -55
-435 -117 -866 -264 -1180 -402 -746 -327 -1143 -693 -1329 -1225 -31 -90 -84
-281 -96 -350 -4 -28 -10 -37 -21 -33 -12 5 -14 -25 -14 -195 0 -168 2 -200
14 -196 9 4 19 -9 31 -39 21 -56 106 -143 163 -168 23 -11 42 -25 42 -33 0
-11 638 -13 3915 -13 3204 0 3915 2 3915 13 0 7 17 19 38 26 84 30 213 142
241 209 7 17 20 32 27 32 11 0 14 35 14 190 0 156 -2 188 -14 184 -9 -4 -15 7
-20 38 -51 325 -215 649 -458 903 -205 215 -432 373 -799 557 -108 54 -203 98
-211 98 -8 0 -18 4 -23 9 -13 11 -280 119 -415 167 -125 45 -265 90 -552 180
-282 88 -615 177 -633 170 -8 -3 -17 -22 -20 -43 -16 -108 -30 -155 -68 -233
-54 -111 -185 -246 -293 -302 -95 -50 -229 -94 -349 -114 -137 -24 -585 -24
-695 -2 -128 27 -192 47 -277 88 -247 117 -389 290 -418 510 -15 110 -20 113
-135 79z"/>
</g>
</svg>
