<?xml version="1.0" standalone="no"?>
<!DOCTYPE svg PUBLIC "-//W3C//DTD SVG 20010904//EN"
 "http://www.w3.org/TR/2001/REC-SVG-20010904/DTD/svg10.dtd">
<svg version="1.0" xmlns="http://www.w3.org/2000/svg"
 width="40.000000pt" height="40.000000pt" viewBox="0 0 40.000000 40.000000"
 preserveAspectRatio="xMidYMid meet">
<metadata>
Created by potrace 1.16, written by Peter Selinger 2001-2019
</metadata>
<g transform="translate(0.000000,40.000000) scale(0.000800,-0.000800)"
fill="#000000" stroke="none">
<path d="M10770 44008 c-182 -17 -415 -72 -609 -145 -595 -222 -1099 -707
-1345 -1296 -92 -218 -153 -455 -176 -682 -8 -81 -10 -2679 -8 -9750 l3 -9640
22 -120 c58 -313 155 -577 306 -830 268 -451 695 -812 1179 -999 182 -70 318
-106 543 -144 93 -15 1053 -17 14225 -20 10016 -2 14163 0 14255 8 611 50
1138 300 1553 735 327 342 533 756 625 1250 l22 120 3 9640 c2 7171 0 9668 -8
9750 -59 561 -306 1067 -716 1465 -357 346 -776 553 -1309 647 -95 16 -820 17
-14285 19 -8295 1 -14224 -2 -14280 -8z m27240 -11808 l0 -8740 -13010 0
-13010 0 0 8740 0 8740 13010 0 13010 0 0 -8740z"/>
<path d="M10465 19783 c-575 -38 -1156 -207 -1515 -441 -111 -72 -274 -236
-317 -317 -34 -67 -3596 -10899 -3620 -11010 -20 -95 -12 -307 16 -430 66
-281 194 -542 389 -795 93 -120 309 -331 429 -419 273 -200 565 -324 883 -373
126 -19 36414 -19 36540 0 402 63 772 248 1084 543 393 372 647 886 646 1308
0 58 -7 135 -14 171 -23 107 -3586 10940 -3619 11005 -40 76 -204 242 -304
309 -322 212 -763 355 -1333 433 -118 16 -997 17 -14670 18 -8000 1 -14567 0
-14595 -2z m2341 -3220 c-3 -10 -39 -146 -80 -303 -42 -157 -100 -375 -129
-485 l-53 -200 -858 -3 c-814 -2 -857 -1 -852 15 25 86 309 980 313 986 2 4
378 7 834 7 786 0 830 -1 825 -17z m2399 -5 c-8 -35 -164 -770 -187 -885 l-21
-103 -1018 0 c-856 0 -1019 2 -1019 14 0 11 235 909 256 979 5 16 61 17 1000
17 l994 0 -5 -22z m2400 0 c-2 -13 -32 -196 -65 -408 -33 -212 -68 -429 -77
-482 l-16 -98 -1025 0 c-815 0 -1023 3 -1020 13 3 6 52 234 109 505 l104 492
998 0 997 0 -5 -22z m2399 0 c-2 -13 -24 -221 -49 -463 -25 -242 -48 -459 -51
-482 l-5 -43 -1025 0 -1025 0 6 33 c9 58 54 336 100 627 24 157 47 300 50 318
l6 32 998 0 998 0 -3 -22z m2392 -140 c-4 -90 -9 -190 -11 -223 -3 -33 -9
-150 -15 -260 -5 -110 -13 -237 -16 -282 l-6 -83 -1024 0 c-604 0 -1024 4
-1024 9 0 8 22 220 35 336 11 95 45 420 55 530 6 61 13 116 15 123 3 9 213 12
1001 12 l997 0 -7 -162z m2404 -343 l0 -505 -1026 0 -1026 0 6 118 c4 64 9
164 12 222 2 58 7 125 9 150 3 25 7 117 11 205 4 88 8 174 9 190 2 17 3 51 4
78 l1 47 1000 0 1000 0 0 -505z m2400 473 c0 -18 3 -67 5 -108 7 -94 45 -827
45 -852 0 -17 -38 -18 -1025 -18 l-1025 0 0 505 0 505 1000 0 1000 0 0 -32z
m2412 -133 c30 -278 49 -456 63 -595 8 -74 17 -161 21 -192 l6 -58 -1026 0
c-814 0 -1026 3 -1026 13 0 6 -5 80 -10 162 -5 83 -11 213 -15 290 -3 77 -8
158 -10 180 -2 22 -7 113 -11 203 l-7 162 999 -2 999 -3 17 -160z m2383 133
c3 -18 37 -231 75 -473 38 -242 72 -455 75 -472 l6 -33 -1025 0 -1025 0 -5 43
c-5 37 -37 341 -82 777 -8 80 -16 155 -18 168 l-3 22 998 0 998 0 6 -32z
m2494 -460 c57 -271 106 -499 109 -505 3 -10 -205 -13 -1022 -13 -620 0 -1026
4 -1026 9 0 12 -149 949 -155 979 l-5 22 997 0 998 0 104 -492z m2295 475 c19
-62 256 -968 256 -979 0 -12 -152 -14 -1018 -14 l-1018 0 -43 203 c-55 264
-159 756 -166 785 l-5 22 994 0 c939 0 995 -1 1000 -17z m2223 -468 c83 -264
154 -490 158 -503 l5 -22 -857 2 -857 3 -8 30 c-5 17 -63 235 -129 485 -66
250 -122 463 -125 473 -5 16 37 17 827 15 l833 -3 153 -480z m-26571 -933 c-3
-9 -60 -222 -126 -472 -67 -250 -122 -455 -124 -457 -5 -5 -1769 -3 -1774 2
-3 3 62 217 143 475 l149 470 869 0 c823 0 868 -1 863 -18z m2474 11 c0 -17
-192 -920 -198 -931 -6 -10 -211 -13 -1056 -12 -577 0 -1051 2 -1053 3 -2 2
14 71 36 153 107 406 184 694 197 742 l15 52 1030 0 c566 0 1029 -3 1029 -7z
m2470 -5 c1 -7 -32 -221 -72 -475 l-73 -463 -1057 0 c-582 0 -1058 3 -1058 6
0 12 188 900 196 927 5 16 63 17 1035 17 816 0 1029 -3 1029 -12z m2476 -20
c-3 -18 -15 -121 -26 -228 -20 -204 -41 -402 -61 -580 -6 -58 -15 -107 -19
-110 -5 -3 -482 -4 -1060 -2 l-1053 2 6 38 c12 87 137 869 142 890 l5 22 1036
0 1036 0 -6 -32z m2470 -50 c-3 -46 -8 -139 -11 -208 -3 -69 -8 -152 -10 -185
-2 -33 -7 -123 -10 -200 -4 -77 -8 -158 -10 -180 -2 -22 -4 -52 -4 -67 l-1
-28 -1060 0 c-951 0 -1060 2 -1060 16 0 23 89 864 95 902 l6 32 1036 0 1035 0
-6 -82z m2474 -393 l0 -475 -1050 0 c-577 0 -1053 1 -1057 3 -5 1 -8 47 -7
102 1 92 29 646 39 775 2 30 4 58 4 63 1 4 467 7 1036 7 l1035 0 0 -475z
m2476 410 c42 -768 46 -878 32 -882 -5 -2 -480 -3 -1058 -3 l-1050 0 0 475 0
475 1037 -2 1036 -3 3 -60z m2468 53 c2 -7 20 -177 41 -378 21 -201 39 -372
40 -380 1 -8 6 -52 10 -97 l7 -83 -1060 0 -1060 0 -6 103 c-4 56 -9 134 -11
172 -2 39 -7 124 -10 190 -5 116 -8 162 -21 383 l-6 102 1036 0 c821 0 1037
-3 1040 -12z m2470 0 c10 -32 148 -929 144 -933 -5 -5 -2109 -7 -2114 -3 -2 3
-29 246 -69 643 -14 132 -27 255 -30 273 l-6 32 1036 0 c820 0 1036 -3 1039
-12z m2475 -25 c25 -98 193 -905 189 -909 -5 -4 -2110 -6 -2113 -2 -1 2 -7 37
-14 78 -6 41 -38 245 -71 452 -33 208 -60 387 -60 398 0 20 6 20 1030 20
l1029 0 10 -37z m2475 -15 c52 -184 236 -891 233 -894 -2 -2 -476 -4 -1053 -4
-845 -1 -1050 2 -1056 12 -4 7 -39 166 -78 353 -39 187 -82 390 -95 452 -14
62 -25 117 -25 123 0 7 326 10 1030 10 l1029 0 15 -52z m2281 -419 c99 -313
145 -473 138 -477 -6 -4 -407 -6 -891 -4 l-880 2 -9 38 c-127 479 -236 887
-240 898 -4 12 120 14 864 14 l869 0 149 -471z m-27367 -893 c-2 -7 -61 -235
-133 -505 l-130 -491 -928 0 c-879 0 -928 1 -923 18 21 71 309 979 313 985 2
4 409 7 904 7 761 0 900 -2 897 -14z m2547 2 c-2 -7 -29 -132 -60 -278 -31
-146 -77 -366 -104 -490 l-47 -225 -1092 -3 c-870 -2 -1092 0 -1092 10 0 7 12
56 26 108 59 221 234 883 234 886 0 2 481 4 1070 4 851 0 1068 -3 1065 -12z
m2545 8 c0 -8 -151 -953 -156 -978 l-6 -28 -1094 0 c-602 0 -1094 2 -1094 4 0
2 47 228 105 501 58 274 105 499 105 501 0 2 482 4 1070 4 589 0 1070 -2 1070
-4z m2539 -58 c-4 -35 -9 -88 -13 -118 -6 -60 -24 -228 -31 -300 -3 -25 -16
-148 -30 -275 -14 -126 -25 -235 -25 -242 0 -11 -209 -13 -1100 -13 l-1100 0
5 23 c7 29 155 963 155 977 0 7 343 10 1073 10 l1073 0 -7 -62z m2547 10 c-3
-29 -8 -123 -11 -208 -4 -85 -8 -168 -10 -185 -2 -16 -9 -150 -16 -297 l-13
-268 -1098 0 c-872 0 -1098 3 -1098 13 0 12 25 260 35 347 18 156 65 609 65
628 l0 22 1076 0 1076 0 -6 -52z m2544 -453 l0 -505 -1101 0 -1100 0 5 53 c3
28 8 104 11 167 3 63 10 189 15 280 8 155 23 454 24 493 0 16 58 17 1073 17
l1073 0 0 -505z m2544 473 c3 -18 8 -91 11 -163 3 -71 8 -164 10 -205 4 -71 8
-142 20 -375 3 -55 8 -130 11 -167 l5 -68 -1101 0 -1100 0 0 505 0 505 1070 0
1069 0 5 -32z m2547 0 c0 -18 2 -40 3 -48 2 -8 6 -49 10 -90 4 -41 22 -214 41
-385 18 -170 36 -343 40 -382 l7 -73 -1095 0 c-603 0 -1098 3 -1100 8 -3 4 -8
75 -11 157 -4 83 -9 177 -11 210 -4 57 -8 147 -20 400 -3 61 -8 138 -11 173
l-6 62 1076 0 1076 0 1 -32z m2539 24 c0 -13 149 -954 155 -979 l5 -23 -1098
0 -1099 0 -12 108 c-17 152 -90 841 -92 872 -1 8 -1 18 0 23 1 10 2141 9 2141
-1z m2540 4 c0 -2 29 -143 65 -312 85 -399 145 -686 145 -690 0 -2 -492 -4
-1094 -4 l-1094 0 -6 28 c-5 25 -156 970 -156 978 0 2 482 4 1070 4 589 0
1070 -2 1070 -4z m2548 -33 c26 -90 252 -952 252 -962 0 -8 -283 -10 -1092 -9
l-1092 3 -13 60 c-6 33 -54 259 -106 503 l-93 442 1066 0 1067 0 11 -37z
m2359 -448 c83 -264 155 -490 158 -502 l5 -23 -927 0 -928 0 -130 491 c-71
271 -131 498 -133 505 -3 12 141 14 899 12 l903 -3 153 -480z m-10591 -3705
c189 -663 353 -1235 363 -1272 l19 -68 -4668 0 -4668 0 14 48 c7 26 169 594
359 1262 190 668 348 1221 350 1228 4 10 798 12 3946 10 l3942 -3 343 -1205z
m14579 -1955 c-64 -146 -224 -341 -365 -445 -81 -60 -180 -110 -280 -142 l-75
-23 -18145 0 -18145 0 -75 23 c-92 29 -220 96 -297 155 -134 103 -287 293
-348 432 l-25 55 18890 0 18890 0 -25 -55z"/>
</g>
</svg>
