<?xml version="1.0" standalone="no"?>
<!DOCTYPE svg PUBLIC "-//W3C//DTD SVG 20010904//EN"
 "http://www.w3.org/TR/2001/REC-SVG-20010904/DTD/svg10.dtd">
<svg version="1.0" xmlns="http://www.w3.org/2000/svg"
 width="40.000000pt" height="40.000000pt" viewBox="0 0 40.000000 40.000000"
 preserveAspectRatio="xMidYMid meet">
<metadata>
Created by potrace 1.16, written by Peter Selinger 2001-2019
</metadata>
<g transform="translate(0.000000,40.000000) scale(0.005000,-0.005000)"
fill="#000000" stroke="none">
<path d="M3180 7081 c0 -10 -9 -21 -20 -24 -15 -4 -20 -14 -20 -41 0 -29 -4
-36 -20 -36 -17 0 -20 -7 -20 -39 0 -30 -4 -40 -20 -44 -16 -4 -20 -14 -20
-46 0 -28 -4 -41 -14 -41 -15 0 -26 -30 -26 -76 0 -23 -5 -33 -20 -37 -17 -4
-20 -14 -20 -60 0 -46 -3 -55 -20 -60 -18 -5 -20 -14 -20 -82 0 -62 -4 -82
-20 -102 -19 -24 -20 -41 -20 -235 0 -201 1 -210 20 -215 17 -5 20 -14 20 -64
0 -52 2 -59 20 -59 17 0 20 -7 20 -40 0 -33 3 -40 20 -40 16 0 20 -7 20 -36 0
-27 5 -37 20 -41 11 -3 20 -14 20 -24 0 -12 7 -19 20 -19 13 0 20 -7 20 -20 0
-13 7 -20 19 -20 10 0 21 -9 24 -20 3 -11 12 -20 21 -20 9 0 25 -9 36 -20 11
-11 28 -20 38 -20 9 0 23 -9 30 -20 14 -22 42 -26 60 -8 9 9 12 80 12 259 0
238 1 247 20 252 15 4 20 14 20 40 0 26 5 36 19 40 29 7 71 -4 71 -19 0 -8 6
-14 14 -14 8 0 18 -9 21 -20 3 -11 11 -20 16 -20 5 0 14 -11 19 -25 5 -14 16
-25 25 -25 8 0 15 -9 15 -20 0 -13 7 -20 20 -20 17 0 20 -7 20 -40 0 -33 3
-40 20 -40 16 0 20 -7 20 -38 0 -26 6 -41 20 -50 15 -9 20 -23 20 -57 0 -57
34 -95 85 -95 28 0 35 4 35 19 0 10 9 21 20 24 15 4 20 14 20 40 0 26 5 36 20
40 17 4 20 14 20 59 0 41 5 58 20 71 19 16 20 29 20 192 0 164 -1 176 -20 187
-16 10 -20 24 -20 70 0 51 -2 58 -20 58 -17 0 -20 7 -20 40 0 27 -7 47 -20 60
-11 11 -20 28 -20 38 0 9 -9 23 -20 30 -13 8 -20 23 -20 42 0 23 -4 30 -20 30
-13 0 -20 7 -20 18 0 11 -9 27 -20 37 -11 10 -20 27 -20 37 0 11 -9 22 -20 25
-11 3 -20 14 -20 24 0 12 -7 19 -20 19 -13 0 -20 7 -20 20 0 13 -7 20 -20 20
-13 0 -20 7 -20 20 0 13 -7 20 -20 20 -13 0 -20 7 -20 20 0 13 -7 20 -20 20
-13 0 -20 7 -20 20 0 13 -7 20 -20 20 -13 0 -20 7 -20 20 0 13 -7 20 -20 20
-13 0 -20 7 -20 20 0 13 -7 20 -20 20 -13 0 -20 7 -20 20 0 13 -7 20 -20 20
-13 0 -20 7 -20 20 0 13 -7 20 -19 20 -10 0 -21 9 -24 20 -4 17 -14 20 -61 20
-48 0 -56 -3 -56 -19z"/>
<path d="M5735 6800 c-17 -18 -30 -20 -159 -20 -153 0 -186 -5 -186 -26 0 -11
-21 -14 -95 -14 -84 0 -96 -2 -107 -20 -11 -17 -24 -20 -80 -20 -57 0 -70 -3
-80 -20 -10 -16 -24 -20 -66 -20 -45 0 -55 -3 -59 -20 -4 -15 -14 -20 -37 -20
-46 0 -76 -11 -76 -26 0 -10 -13 -14 -41 -14 -32 0 -42 -4 -46 -20 -4 -15 -14
-20 -40 -20 -26 0 -36 -5 -40 -19 -3 -12 -17 -21 -39 -26 -20 -3 -34 -12 -34
-20 0 -9 -10 -15 -25 -15 -18 0 -25 -5 -25 -19 0 -14 -10 -21 -35 -25 -21 -4
-35 -13 -35 -21 0 -9 -9 -15 -21 -15 -12 0 -23 -8 -26 -19 -3 -11 -13 -21 -24
-24 -10 -3 -19 -12 -19 -21 0 -9 -8 -16 -20 -16 -13 0 -20 -7 -20 -20 0 -11
-7 -20 -15 -20 -9 0 -19 -8 -22 -17 -4 -10 -15 -24 -25 -31 -10 -8 -18 -26
-18 -43 0 -22 -5 -29 -20 -29 -12 0 -20 -7 -20 -18 0 -10 -9 -25 -20 -35 -12
-10 -20 -29 -20 -47 0 -19 -5 -30 -14 -30 -15 0 -26 -30 -26 -75 0 -18 -8 -38
-20 -48 -19 -16 -20 -29 -20 -199 0 -176 1 -184 21 -196 15 -10 24 -11 32 -3
6 6 24 11 39 11 21 0 28 5 28 20 0 13 7 20 20 20 13 0 20 7 20 20 0 13 7 20
20 20 13 0 20 7 20 20 0 12 7 20 18 20 9 0 23 9 30 20 7 12 23 20 38 20 17 0
28 7 31 20 3 11 14 20 24 20 12 0 19 7 19 20 0 16 7 20 36 20 27 0 37 5 41 20
4 15 14 20 40 20 26 0 36 5 40 20 5 17 14 20 60 20 46 0 56 3 60 20 5 18 14
20 84 20 l79 0 0 -99 c0 -90 -2 -99 -20 -104 -17 -4 -20 -14 -20 -61 0 -49 -2
-56 -20 -56 -17 0 -20 -7 -20 -40 0 -33 -3 -40 -20 -40 -17 0 -20 -7 -20 -40
0 -33 -3 -40 -20 -40 -13 0 -20 -7 -20 -19 0 -10 -9 -21 -20 -24 -15 -4 -20
-14 -20 -41 0 -29 -4 -36 -20 -36 -13 0 -20 -7 -20 -20 0 -13 -7 -20 -20 -20
-13 0 -20 -7 -20 -20 0 -11 -7 -20 -15 -20 -9 0 -19 -8 -22 -17 -4 -10 -15
-24 -25 -31 -13 -10 -18 -26 -18 -63 l0 -49 136 0 c127 0 136 1 141 20 5 18
14 20 80 20 66 0 75 2 80 20 4 16 14 20 44 20 26 0 46 7 59 20 11 11 28 20 38
20 11 0 27 9 37 20 10 11 29 20 42 20 16 0 23 6 23 20 0 12 7 20 18 20 9 0 23
9 30 20 7 11 21 20 32 20 10 0 25 8 32 18 7 10 21 21 31 25 9 3 17 13 17 22 0
8 7 15 15 15 9 0 18 8 22 18 3 9 14 25 25 35 10 10 18 29 18 42 0 18 5 25 20
25 13 0 20 7 20 20 0 13 7 20 20 20 14 0 20 7 20 23 0 13 9 32 20 42 11 10 20
26 20 35 0 10 9 20 20 23 15 4 20 14 20 40 0 26 5 36 20 40 15 4 20 14 20 40
0 26 5 36 20 40 15 4 20 14 20 41 0 23 7 43 20 56 13 13 20 33 20 59 0 30 4
40 20 44 17 4 20 14 20 59 0 41 5 58 20 71 16 13 20 29 20 79 0 52 3 65 20 76
18 11 20 23 20 100 0 76 3 90 20 105 19 16 20 27 18 180 l-3 162 -51 3 c-40 2
-54 -1 -69 -18z"/>
<path d="M1140 6027 c0 -141 2 -155 20 -172 18 -16 20 -31 20 -160 0 -129 2
-144 20 -160 17 -16 20 -31 20 -116 0 -88 2 -100 20 -111 17 -11 20 -24 20
-86 0 -65 2 -74 20 -79 17 -5 20 -14 20 -64 0 -46 5 -64 20 -79 12 -12 20 -33
20 -52 0 -48 10 -78 26 -78 10 0 14 -13 14 -45 0 -38 3 -45 20 -45 16 0 20 -7
20 -32 0 -48 10 -78 26 -78 9 0 14 -11 14 -30 0 -18 8 -37 20 -47 11 -10 20
-25 20 -35 0 -10 9 -27 20 -38 11 -11 20 -29 20 -40 0 -13 7 -20 20 -20 16 0
20 -7 20 -36 0 -27 5 -37 20 -41 11 -3 20 -14 20 -24 0 -12 7 -19 20 -19 13 0
20 -7 20 -18 0 -11 9 -27 20 -37 11 -10 20 -27 20 -37 0 -11 9 -22 20 -25 11
-3 20 -12 20 -20 0 -8 9 -17 20 -20 11 -3 20 -12 20 -20 0 -8 9 -17 19 -20 11
-3 21 -13 24 -24 3 -11 14 -19 26 -19 12 0 21 -6 21 -15 0 -8 14 -17 35 -21
25 -4 35 -11 35 -25 0 -12 7 -19 19 -19 10 0 21 -9 24 -20 4 -15 14 -20 41
-20 29 0 36 -4 36 -20 0 -17 7 -20 40 -20 33 0 40 -3 40 -20 0 -17 7 -20 39
-20 30 0 40 -4 44 -20 5 -18 14 -20 80 -20 66 0 75 -2 80 -20 5 -19 14 -20
199 -20 186 0 194 1 206 21 10 15 11 24 3 32 -6 6 -11 24 -11 39 0 21 -5 28
-20 28 -13 0 -20 7 -20 20 0 13 -7 20 -20 20 -13 0 -20 7 -20 20 0 13 -7 20
-20 20 -15 0 -20 7 -20 25 0 13 -8 32 -18 42 -11 10 -22 26 -25 36 -4 9 -13
17 -22 17 -8 0 -15 9 -15 20 0 13 -7 20 -20 20 -16 0 -20 7 -20 36 0 27 -5 37
-20 41 -11 3 -20 14 -20 24 0 12 -7 19 -20 19 -17 0 -20 7 -20 40 0 33 -3 40
-20 40 -16 0 -20 7 -20 38 0 26 -6 41 -20 50 -16 9 -20 23 -20 62 0 43 -3 50
-20 50 -19 0 -20 7 -20 160 l0 160 38 0 c25 0 43 -7 55 -20 14 -17 29 -20 102
-20 78 0 85 -2 85 -20 0 -17 7 -20 45 -20 32 0 45 -4 45 -14 0 -14 29 -26 67
-26 13 0 28 -9 35 -20 7 -11 22 -20 34 -20 11 0 29 -9 39 -20 10 -11 26 -20
35 -20 10 0 20 -9 23 -20 4 -15 14 -20 41 -20 29 0 36 -4 36 -20 0 -13 7 -20
19 -20 10 0 21 -9 24 -20 3 -13 14 -20 31 -20 15 0 31 -8 38 -20 7 -11 21 -20
30 -20 11 0 18 -8 18 -20 0 -13 7 -20 20 -20 13 0 20 -7 20 -20 0 -13 7 -20
19 -20 10 0 21 -9 24 -20 3 -11 12 -20 20 -20 8 0 17 -9 20 -21 4 -16 12 -20
39 -17 l33 3 3 233 c2 227 2 234 -18 239 -17 5 -20 14 -20 64 0 52 -2 59 -20
59 -17 0 -20 7 -20 50 0 39 -4 53 -20 62 -11 7 -20 23 -20 36 0 12 -9 30 -20
39 -11 10 -20 25 -20 35 0 11 -8 18 -20 18 -16 0 -20 7 -20 36 0 27 -5 37 -20
41 -11 3 -20 14 -20 24 0 12 -7 19 -20 19 -13 0 -20 7 -20 20 0 13 -7 20 -20
20 -11 0 -20 6 -20 14 0 19 -87 106 -106 106 -8 0 -14 9 -14 20 0 13 -7 20
-20 20 -13 0 -20 7 -20 20 0 13 -7 20 -20 20 -13 0 -20 7 -20 20 0 13 -7 20
-19 20 -10 0 -21 9 -24 20 -4 15 -14 20 -41 20 -29 0 -36 4 -36 20 0 13 -7 20
-19 20 -10 0 -21 9 -24 20 -4 15 -14 20 -41 20 -29 0 -36 4 -36 20 0 17 -7 20
-40 20 -33 0 -40 3 -40 20 0 17 -7 20 -40 20 -33 0 -40 3 -40 20 0 17 -7 20
-40 20 -33 0 -40 3 -40 20 0 17 -7 20 -39 20 -30 0 -40 4 -44 20 -4 17 -14 20
-61 20 -49 0 -56 2 -56 20 0 17 -7 20 -50 20 -39 0 -53 4 -62 20 -10 16 -24
20 -69 20 -48 0 -57 3 -62 20 -5 18 -14 20 -80 20 -66 0 -75 2 -80 20 -5 18
-14 20 -86 20 -62 0 -81 3 -81 14 0 20 -32 26 -141 26 -83 0 -98 3 -114 20
-16 17 -31 20 -117 20 l-98 0 0 -153z"/>
<path d="M3506 5708 c-12 -48 -6 -98 14 -115 18 -16 20 -30 20 -155 0 -125 2
-140 20 -158 17 -17 20 -33 20 -100 0 -67 3 -83 20 -100 15 -15 20 -33 20 -78
0 -46 4 -60 20 -70 16 -9 20 -23 20 -62 0 -37 5 -55 20 -70 13 -13 20 -33 20
-60 0 -33 3 -40 20 -40 17 0 20 -7 20 -40 0 -33 3 -40 20 -40 18 0 20 -7 20
-60 0 -53 -2 -60 -20 -60 -17 0 -20 -7 -20 -40 0 -33 -3 -40 -20 -40 -17 0
-20 -7 -20 -40 0 -33 -3 -40 -20 -40 -17 0 -20 -7 -20 -39 0 -30 -4 -40 -20
-44 -17 -4 -20 -14 -20 -61 0 -49 -2 -56 -20 -56 -17 0 -20 -7 -20 -45 0 -32
-4 -45 -14 -45 -15 0 -26 -30 -26 -75 0 -18 -8 -38 -20 -48 -16 -14 -20 -29
-20 -82 0 -58 -2 -65 -20 -65 -13 0 -20 -7 -20 -20 0 -13 -7 -20 -20 -20 -16
0 -20 7 -20 36 0 27 -5 37 -20 41 -11 3 -20 14 -20 24 0 12 -7 19 -20 19 -16
0 -20 7 -20 36 0 27 -5 37 -20 41 -11 3 -20 14 -20 24 0 12 -7 19 -20 19 -13
0 -20 7 -20 20 0 13 -7 20 -20 20 -13 0 -20 7 -20 20 0 13 -7 20 -20 20 -11 0
-20 6 -20 14 0 19 -87 106 -106 106 -8 0 -14 9 -14 20 0 13 -7 20 -20 20 -13
0 -20 7 -20 20 0 13 -7 20 -20 20 -13 0 -20 7 -20 20 0 13 -7 20 -20 20 -13 0
-20 7 -20 20 0 13 -7 20 -19 20 -10 0 -21 9 -24 20 -4 16 -14 20 -45 20 -27 0
-42 5 -46 16 -9 24 -50 14 -54 -14 -2 -13 3 -25 12 -28 9 -3 16 -16 16 -29 0
-12 9 -30 20 -40 11 -10 20 -24 20 -31 0 -8 9 -19 20 -26 11 -7 20 -21 20 -30
0 -11 8 -18 20 -18 13 0 20 -7 20 -20 0 -13 7 -20 20 -20 16 0 20 -7 20 -36 0
-27 5 -37 20 -41 11 -3 20 -14 20 -24 0 -12 7 -19 20 -19 16 0 20 -7 20 -36 0
-27 5 -37 20 -41 15 -4 20 -14 20 -40 0 -26 5 -36 20 -40 14 -4 20 -14 20 -34
0 -18 8 -34 20 -41 14 -9 20 -24 20 -46 0 -25 5 -35 20 -39 15 -4 20 -14 20
-40 0 -26 5 -36 20 -40 16 -4 20 -14 20 -44 0 -32 3 -39 20 -39 18 0 20 -7 20
-56 0 -47 3 -57 20 -61 17 -4 20 -14 20 -54 0 -37 5 -51 21 -62 20 -14 20 -22
19 -358 0 -240 -4 -347 -12 -356 -8 -10 -8 -17 0 -25 9 -9 12 -107 12 -350 0
-327 1 -338 20 -350 18 -12 20 -24 20 -140 0 -117 2 -129 20 -140 18 -11 20
-24 20 -106 0 -85 2 -94 20 -99 18 -5 20 -14 20 -83 0 -64 3 -80 20 -95 16
-14 20 -31 20 -82 0 -56 2 -63 20 -63 18 0 20 -7 20 -65 0 -50 4 -68 19 -82
10 -10 21 -31 25 -46 4 -17 16 -31 33 -38 16 -6 140 -9 321 -7 277 3 294 4
308 22 8 11 14 37 14 58 0 31 -4 38 -20 38 -16 0 -20 7 -20 30 0 19 -7 34 -20
42 -11 7 -20 20 -20 28 0 8 -9 21 -20 28 -13 8 -20 23 -20 42 0 23 -4 30 -20
30 -17 0 -20 7 -20 40 0 33 -3 40 -20 40 -17 0 -20 7 -20 40 0 33 -3 40 -20
40 -17 0 -20 7 -20 40 0 33 -3 40 -20 40 -17 0 -20 7 -20 50 0 39 -4 53 -20
62 -14 9 -20 24 -20 50 0 31 -4 38 -20 38 -18 0 -20 7 -20 56 0 47 -3 57 -20
61 -17 4 -20 14 -20 54 0 38 -4 52 -20 61 -16 10 -20 24 -20 66 0 45 -3 55
-20 59 -17 5 -20 14 -20 69 0 52 -4 68 -20 81 -33 29 -26 53 16 53 27 0 37 5
41 19 3 12 17 21 39 26 20 3 34 12 34 20 0 9 10 15 25 15 18 0 25 5 25 20 0
16 7 20 36 20 27 0 37 5 41 20 3 11 14 20 24 20 12 0 19 7 19 20 0 13 7 20 18
20 11 0 27 9 37 20 10 11 27 20 37 20 11 0 22 9 25 20 3 11 14 20 24 20 12 0
19 7 19 20 0 13 7 20 20 20 13 0 20 7 20 20 0 13 7 20 20 20 13 0 20 7 20 20
0 13 7 20 20 20 13 0 20 7 20 20 0 13 7 20 18 20 10 0 29 11 42 25 13 14 29
25 36 25 6 0 14 9 17 20 3 11 12 20 21 20 9 0 16 5 16 10 0 6 20 32 45 58 25
26 45 55 45 64 0 11 8 18 20 18 13 0 20 7 20 20 0 13 7 20 20 20 13 0 20 7 20
20 0 13 7 20 20 20 13 0 20 7 20 20 0 13 7 20 20 20 13 0 20 7 20 20 0 11 7
20 15 20 9 0 19 8 22 18 4 9 15 23 25 30 10 8 18 26 18 43 0 22 5 29 20 29 13
0 20 7 20 20 0 13 7 20 20 20 13 0 20 7 20 19 0 10 9 21 20 24 16 4 20 14 20
49 0 24 5 49 12 56 9 9 9 15 0 24 -9 9 -15 9 -24 0 -7 -7 -25 -12 -40 -12 -21
0 -28 -5 -28 -20 0 -13 -7 -20 -20 -20 -13 0 -20 -7 -20 -20 0 -13 -7 -20 -20
-20 -13 0 -20 -7 -20 -20 0 -13 -7 -20 -20 -20 -13 0 -20 -7 -20 -20 0 -13 -7
-20 -20 -20 -13 0 -20 -7 -20 -20 0 -13 -7 -20 -20 -20 -13 0 -20 -7 -20 -20
0 -13 -7 -20 -20 -20 -13 0 -20 -7 -20 -20 0 -13 -7 -20 -20 -20 -13 0 -20 -7
-20 -20 0 -13 -7 -20 -20 -20 -11 0 -29 -9 -40 -20 -11 -11 -27 -20 -36 -20
-9 0 -18 -9 -21 -20 -3 -11 -14 -20 -24 -20 -12 0 -19 -7 -19 -19 0 -14 -10
-21 -35 -25 -21 -4 -35 -13 -35 -21 0 -9 -10 -15 -25 -15 -18 0 -25 -5 -25
-20 0 -16 -7 -20 -30 -20 -19 0 -34 -7 -42 -20 -7 -11 -21 -20 -30 -20 -11 0
-18 -8 -18 -20 0 -17 -7 -20 -40 -20 -33 0 -40 -3 -40 -20 0 -17 -7 -20 -40
-20 -33 0 -40 -3 -40 -20 0 -17 -7 -20 -50 -20 -39 0 -53 -4 -62 -20 -9 -14
-24 -20 -50 -20 -31 0 -38 -4 -38 -19 0 -17 -9 -20 -66 -23 -50 -2 -69 1 -80
13 -12 13 -14 79 -14 382 0 354 1 368 20 387 18 18 20 33 20 139 0 110 1 119
20 124 18 5 20 14 20 101 0 89 1 96 20 96 18 0 20 7 20 80 0 73 2 80 20 80 18
0 20 7 20 59 0 50 3 59 20 64 17 4 20 14 20 60 0 46 3 55 20 60 17 4 20 14 20
61 0 49 2 56 20 56 17 0 20 7 20 45 0 32 4 45 14 45 16 0 26 30 26 78 0 25 4
32 20 32 17 0 20 7 20 39 0 30 4 40 20 44 15 4 20 14 20 40 0 26 5 36 20 40
15 4 20 14 20 40 0 26 5 36 20 40 15 4 20 14 20 40 0 26 5 36 20 40 15 4 20
14 20 41 0 29 4 36 20 36 17 0 20 7 20 40 0 33 3 40 20 40 13 0 20 7 20 19 0
10 9 21 20 24 15 4 20 14 20 41 0 29 4 36 20 36 15 0 20 7 20 25 0 15 6 25 15
25 8 0 17 14 21 35 4 25 11 35 25 35 11 0 19 7 19 18 0 9 9 23 20 30 13 8 20
23 20 42 0 23 4 30 20 30 13 0 20 7 20 19 0 10 9 21 21 24 18 5 20 12 17 59
-3 52 -4 53 -36 56 -27 3 -35 -1 -39 -17 -3 -12 -14 -21 -24 -21 -12 0 -19 -7
-19 -20 0 -13 -7 -20 -20 -20 -13 0 -20 -7 -20 -20 0 -13 -7 -20 -20 -20 -13
0 -20 -7 -20 -19 0 -10 -9 -21 -20 -24 -11 -3 -20 -12 -20 -20 0 -8 -9 -17
-20 -20 -11 -3 -20 -12 -20 -21 0 -9 -9 -25 -20 -36 -11 -11 -20 -29 -20 -40
0 -13 -7 -20 -20 -20 -13 0 -20 -7 -20 -20 0 -13 -7 -20 -20 -20 -13 0 -20 -7
-20 -19 0 -10 -9 -21 -20 -24 -15 -4 -20 -14 -20 -41 0 -29 -4 -36 -20 -36
-13 0 -20 -7 -20 -20 0 -13 -7 -20 -20 -20 -15 0 -20 -7 -20 -25 0 -15 -6 -25
-15 -25 -8 0 -17 -14 -21 -35 -4 -25 -11 -35 -25 -35 -12 0 -19 7 -19 20 0 13
-7 20 -20 20 -13 0 -20 7 -20 18 0 11 -9 27 -20 37 -11 10 -20 29 -20 42 0 16
-6 23 -20 23 -17 0 -20 7 -20 40 0 33 -3 40 -20 40 -17 0 -20 7 -20 40 0 33
-3 40 -20 40 -18 0 -20 7 -20 56 0 47 -3 57 -20 61 -17 4 -20 14 -20 54 0 38
-4 52 -20 61 -16 10 -20 24 -20 66 0 45 -3 55 -20 59 -17 4 -20 15 -22 82 -3
70 -5 76 -25 79 -13 2 -23 10 -23 18 0 9 -10 14 -29 14 -21 0 -30 -6 -35 -22z"/>
<path d="M6205 5000 c-16 -18 -31 -20 -151 -20 -123 0 -135 -2 -146 -20 -11
-18 -24 -20 -106 -20 -85 0 -94 -2 -99 -20 -5 -18 -14 -20 -84 -20 -72 0 -79
-2 -79 -20 0 -18 -7 -20 -70 -20 -59 0 -72 -3 -82 -20 -10 -15 -24 -20 -56
-20 -30 0 -47 -6 -59 -20 -11 -13 -30 -20 -53 -20 -24 0 -39 -6 -48 -20 -9
-15 -23 -20 -52 -20 -29 0 -43 -5 -52 -20 -9 -14 -24 -20 -46 -20 -25 0 -35
-5 -39 -20 -4 -15 -14 -20 -40 -20 -26 0 -36 -5 -40 -20 -3 -11 -13 -20 -23
-20 -9 0 -25 -9 -35 -20 -10 -11 -29 -20 -42 -20 -16 0 -23 -6 -23 -20 0 -15
-7 -20 -25 -20 -14 0 -33 -9 -42 -20 -10 -11 -25 -20 -35 -20 -11 0 -18 -8
-18 -20 0 -13 -7 -20 -20 -20 -13 0 -20 -7 -20 -20 0 -12 -7 -20 -16 -20 -9 0
-29 -10 -44 -22 -15 -13 -44 -36 -64 -52 -20 -16 -36 -35 -36 -43 0 -7 -7 -13
-15 -13 -8 0 -15 -7 -15 -15 0 -9 -11 -27 -25 -41 -14 -14 -25 -31 -25 -39 0
-8 -9 -15 -20 -15 -13 0 -20 -7 -20 -19 0 -10 -9 -21 -20 -24 -13 -3 -20 -14
-20 -31 0 -15 -8 -31 -20 -38 -11 -7 -20 -20 -20 -29 0 -9 -9 -19 -20 -22 -15
-4 -20 -14 -20 -40 0 -26 -5 -36 -20 -40 -15 -4 -20 -14 -20 -39 0 -21 -7 -40
-20 -51 -14 -12 -20 -29 -20 -61 0 -35 -4 -45 -20 -49 -18 -5 -20 -14 -20 -86
0 -64 -3 -81 -15 -81 -21 0 -26 -47 -23 -225 l3 -160 29 -3 c18 -2 36 4 50 16
11 11 31 23 44 27 12 3 22 11 22 16 0 5 11 14 25 19 14 5 25 16 25 25 0 8 9
15 20 15 13 0 20 7 20 20 0 13 7 20 18 20 11 0 27 9 37 20 10 11 27 20 37 20
11 0 22 9 25 20 3 11 13 20 22 20 9 0 22 9 29 20 8 13 23 20 42 20 23 0 30 4
30 20 0 16 7 20 36 20 27 0 37 5 41 20 4 15 14 20 40 20 26 0 36 5 40 20 4 16
14 20 44 20 32 0 39 3 39 20 0 17 7 20 50 20 39 0 53 4 62 20 10 16 24 20 69
20 43 0 60 5 74 20 17 19 31 20 190 20 120 0 175 -4 183 -12 19 -19 14 -66 -8
-88 -17 -17 -20 -33 -20 -99 0 -70 -2 -79 -20 -84 -17 -4 -20 -14 -20 -61 0
-49 -2 -56 -20 -56 -17 0 -20 -7 -20 -39 0 -30 -4 -40 -20 -44 -15 -4 -20 -14
-20 -41 0 -29 -4 -36 -20 -36 -17 0 -20 -7 -20 -40 0 -33 -3 -40 -20 -40 -12
0 -20 -7 -20 -18 0 -9 -9 -23 -20 -30 -13 -8 -20 -23 -20 -42 0 -23 -4 -30
-20 -30 -13 0 -20 -7 -20 -19 0 -10 -9 -21 -20 -24 -13 -3 -20 -14 -20 -31 0
-15 -8 -31 -20 -38 -11 -7 -20 -21 -20 -30 0 -11 -8 -18 -20 -18 -13 0 -20 -7
-20 -20 0 -13 -7 -20 -20 -20 -13 0 -20 -7 -20 -19 0 -10 -9 -21 -20 -24 -11
-3 -20 -12 -20 -20 0 -8 -9 -17 -20 -20 -11 -3 -20 -12 -20 -20 0 -8 -9 -17
-20 -20 -11 -3 -20 -12 -20 -20 0 -8 -9 -17 -20 -20 -11 -3 -20 -12 -20 -20 0
-8 -9 -17 -20 -20 -11 -3 -20 -12 -20 -20 0 -8 -9 -17 -21 -20 -16 -4 -20 -12
-17 -39 3 -31 6 -33 42 -36 22 -2 51 -12 64 -23 21 -16 41 -19 147 -19 107 0
125 2 148 20 22 17 40 20 131 20 93 0 109 3 126 20 15 15 33 20 76 20 47 0 57
3 61 20 4 17 14 20 54 20 38 0 52 4 61 20 9 14 24 20 46 20 25 0 35 5 39 20 4
15 14 20 40 20 26 0 36 5 40 20 3 11 13 20 22 20 9 0 22 9 29 20 7 12 23 20
38 20 17 0 28 7 31 20 3 11 14 20 24 20 12 0 19 7 19 20 0 15 7 20 25 20 13 0
32 8 42 18 10 11 26 22 36 25 9 4 17 13 17 22 0 8 9 15 20 15 13 0 20 7 20 20
0 13 7 20 20 20 13 0 20 7 20 20 0 13 7 20 20 20 13 0 20 7 20 20 0 13 7 20
20 20 13 0 20 7 20 20 0 11 7 20 15 20 9 0 19 8 22 18 4 9 15 23 25 30 10 7
18 22 18 32 0 11 9 25 20 32 11 7 20 21 20 30 0 11 8 18 20 18 13 0 20 7 20
19 0 10 9 21 20 24 13 3 20 14 20 31 0 15 8 31 20 38 11 7 20 20 20 29 0 9 9
19 20 22 15 4 20 14 20 41 0 29 4 36 20 36 14 0 20 7 20 23 0 13 9 32 20 42
11 10 20 25 20 34 0 9 9 22 20 29 12 7 20 23 20 41 0 20 6 30 20 34 15 4 20
14 20 40 0 26 5 36 20 40 15 4 20 14 20 39 0 21 7 40 20 51 15 12 20 29 20 62
0 38 3 45 20 45 17 0 20 7 20 39 0 30 4 40 20 44 17 4 20 14 20 61 0 49 2 56
20 56 18 0 20 7 20 60 0 53 2 60 20 60 18 0 20 7 20 59 0 50 3 59 20 64 17 4
20 14 20 59 0 41 5 58 20 71 16 13 20 29 20 79 0 52 3 65 20 76 18 11 20 23
20 101 0 80 2 89 20 94 19 5 20 14 20 121 l0 116 -418 0 c-406 0 -419 -1 -437
-20z"/>
</g>
</svg>
