<?xml version="1.0" standalone="no"?>
<!DOCTYPE svg PUBLIC "-//W3C//DTD SVG 20010904//EN"
 "http://www.w3.org/TR/2001/REC-SVG-20010904/DTD/svg10.dtd">
<svg version="1.0" xmlns="http://www.w3.org/2000/svg"
 width="40.000000pt" height="40.000000pt" viewBox="0 0 40.000000 40.000000"
 preserveAspectRatio="xMidYMid meet">
<metadata>
Created by potrace 1.16, written by Peter Selinger 2001-2019
</metadata>
<g transform="translate(0.000000,40.000000) scale(0.000781,-0.000781)"
fill="#000000" stroke="none">
<path d="M20607 40509 c-464 -45 -913 -258 -1250 -594 -297 -296 -496 -673
-571 -1080 -33 -174 -36 -293 -36 -1286 l0 -999 -2029 0 -2030 0 -3 558 c-2
306 -7 565 -12 575 -8 16 -120 17 -2151 17 l-2142 0 -7 -46 c-3 -26 -6 -285
-6 -575 l0 -529 -1985 0 -1985 0 0 -12935 0 -12935 19200 0 19200 0 0 12935 0
12935 -1982 2 -1983 3 -3 508 -2 507 -2160 0 -2160 0 0 -510 0 -510 -2030 0
-2030 0 0 999 c0 993 -3 1112 -36 1286 -101 548 -427 1036 -899 1348 -118 78
-343 187 -477 231 -132 44 -316 82 -463 96 -135 12 -9836 12 -9968 -1z m10003
-1423 c213 -82 376 -261 425 -468 12 -54 15 -213 15 -1065 l0 -1003 -5450 0
-5450 0 0 1006 c0 1117 -3 1057 68 1202 43 90 147 205 236 260 54 35 169 82
231 95 11 3 2232 4 4935 3 l4915 -1 75 -29z m415 -6471 c394 -38 731 -108
1095 -227 154 -50 360 -126 401 -149 20 -10 -86 -119 -1576 -1609 l-1597
-1597 146 -594 c80 -327 199 -810 264 -1074 l118 -479 1068 -260 1068 -259
1598 1598 c880 880 1601 1597 1603 1595 3 -3 25 -57 50 -120 611 -1555 428
-3302 -493 -4681 -351 -526 -802 -987 -1326 -1354 -365 -255 -846 -498 -1269
-640 -880 -294 -1844 -345 -2730 -144 -71 16 -143 33 -159 36 -27 6 -283 -249
-4810 -4774 -3162 -3162 -4808 -4801 -4861 -4840 -314 -235 -670 -379 -1055
-428 -161 -21 -458 -16 -610 10 -353 59 -667 193 -960 409 -106 78 -779 739
-908 891 -336 398 -519 934 -499 1460 17 462 161 868 440 1245 55 74 1107
1133 4847 4875 l4777 4780 -33 135 c-161 656 -175 1415 -38 2122 338 1763
1621 3237 3321 3818 473 162 861 236 1433 274 114 8 541 -4 695 -19z"/>
<path d="M18200 16585 c-8 -2 -49 -9 -90 -15 -313 -51 -622 -254 -807 -533
-321 -482 -266 -1117 134 -1538 177 -185 376 -299 627 -356 90 -21 138 -26
256 -27 162 -1 249 12 390 56 373 118 674 415 800 788 59 174 77 421 45 606
-74 423 -370 783 -775 942 -129 51 -247 74 -410 77 -85 2 -162 2 -170 0z"/>
</g>
</svg>
